<?xml version="1.0" standalone="no"?>
<!DOCTYPE svg PUBLIC "-//W3C//DTD SVG 20010904//EN"
 "http://www.w3.org/TR/2001/REC-SVG-20010904/DTD/svg10.dtd">
<svg version="1.0" xmlns="http://www.w3.org/2000/svg"
 width="672.000000pt" height="752.000000pt" viewBox="0 0 672.000000 752.000000"
 preserveAspectRatio="xMidYMid meet">

<g transform="translate(0.000000,752.000000) scale(0.100000,-0.100000)"
fill="#000000" stroke="none">
<path d="M3355 6136 c-16 -7 -89 -67 -161 -132 -357 -325 -692 -545 -1049
-688 -108 -44 -309 -100 -425 -120 -219 -37 -525 -44 -700 -15 -48 8 -70 7
-87 -2 -23 -12 -30 -11 -139 22 -17 5 -40 9 -52 9 -12 0 -22 5 -22 10 0 6 -35
10 -84 10 l-84 0 -40 -45 c-50 -57 -50 -57 -40 -425 11 -368 19 -469 58 -755
36 -263 40 -287 50 -310 5 -11 11 -38 14 -60 2 -22 10 -62 16 -90 6 -27 14
-67 17 -88 3 -20 9 -40 14 -43 5 -3 9 -18 9 -34 0 -16 5 -32 10 -35 6 -3 10
-21 10 -40 0 -19 4 -37 10 -40 5 -3 10 -19 10 -35 0 -16 5 -32 10 -35 6 -3 10
-17 10 -30 0 -13 5 -27 10 -30 6 -3 10 -19 10 -35 0 -16 4 -32 10 -35 5 -3 10
-15 10 -26 0 -10 4 -27 9 -37 5 -9 14 -30 21 -47 7 -16 16 -38 21 -47 5 -10 9
-27 9 -37 0 -11 5 -23 10 -26 6 -3 10 -14 10 -25 0 -10 8 -35 19 -57 10 -21
29 -60 41 -88 12 -27 26 -58 31 -67 5 -10 9 -25 9 -33 0 -8 5 -15 10 -15 6 0
10 -7 10 -15 0 -8 4 -23 9 -33 5 -9 17 -35 28 -57 23 -47 46 -88 53 -95 3 -3
16 -27 30 -55 13 -27 36 -68 50 -90 15 -22 34 -57 43 -77 10 -20 22 -40 27
-43 5 -3 21 -30 36 -60 14 -30 30 -55 35 -55 5 0 9 -4 9 -10 0 -5 36 -57 80
-115 44 -58 80 -108 80 -110 0 -17 181 -225 401 -460 77 -83 285 -278 336
-314 22 -16 44 -35 48 -40 3 -6 49 -44 102 -84 52 -39 116 -88 141 -108 138
-106 545 -369 571 -369 5 0 11 -4 13 -8 9 -25 304 -172 344 -172 53 0 303 132
574 303 726 458 1333 1071 1711 1729 425 740 638 1618 639 2631 0 253 -2 291
-17 315 -32 52 -53 62 -130 62 -39 0 -74 -4 -77 -9 -3 -5 -23 -11 -43 -14 -21
-3 -56 -10 -78 -17 -69 -20 -95 -23 -110 -10 -12 10 -38 10 -128 -1 -174 -22
-446 -17 -597 10 -469 82 -810 229 -1185 511 -71 54 -159 123 -195 154 -36 31
-78 62 -95 71 -32 15 -125 102 -186 171 -42 48 -72 58 -114 40z m133 -482
c341 -301 721 -529 1080 -649 350 -118 637 -162 980 -152 165 4 366 28 445 53
15 5 17 -4 17 -88 0 -51 -4 -99 -9 -107 -5 -8 -7 29 -4 86 l5 100 -88 -18
c-148 -29 -280 -40 -464 -38 -188 2 -208 3 -285 13 -369 50 -676 145 -982 303
-68 34 -132 63 -143 63 -11 0 -20 7 -20 15 0 14 -12 20 -33 16 -5 -1 -6 2 -3
7 4 7 -86 68 -106 71 -4 1 -18 11 -32 24 -13 12 -40 33 -60 47 -21 14 -50 35
-66 48 -17 14 -31 19 -35 12 -3 -5 -12 -10 -18 -10 -7 0 -4 5 6 11 9 6 15 15
11 20 -3 6 -12 5 -22 -3 -13 -11 -15 -10 -9 5 7 20 -3 22 -23 5 -12 -11 -12
-10 -1 5 8 9 12 19 10 21 -2 1 -29 21 -59 43 -30 22 -61 47 -68 56 -7 8 -21
14 -31 12 -11 -2 -17 4 -18 17 -2 15 -65 88 -77 88 -2 0 0 -1254 2 -1271 2
-13 23 -17 125 -22 344 -17 731 -184 1087 -471 103 -82 286 -263 366 -361 64
-78 174 -234 174 -246 0 -37 -229 -329 -342 -434 -231 -217 -524 -419 -719
-496 -29 -11 -53 -18 -55 -16 -2 2 27 16 64 31 203 79 536 318 759 545 71 71
243 290 273 346 13 23 10 30 -33 93 -402 588 -1082 1002 -1647 1002 -393 0
-684 -88 -1049 -315 -251 -156 -583 -476 -728 -703 l-35 -54 38 -56 c182 -276
487 -560 804 -749 123 -74 196 -108 331 -158 164 -60 270 -84 439 -98 100 -9
144 -16 143 -24 -2 -7 -3 -198 -3 -424 0 -226 -3 -409 -6 -407 -2 3 -5 44 -5
92 0 47 -4 84 -9 81 -5 -3 -16 2 -24 11 -9 8 -16 11 -16 6 0 -5 10 -17 23 -25
l22 -16 -22 6 c-14 3 -23 1 -23 -6 0 -6 -5 -11 -11 -11 -8 0 -8 5 1 15 12 15
11 16 -10 19 -5 0 -9 6 -8 11 2 6 7 9 11 7 5 -1 5 2 2 8 -5 8 -13 6 -26 -6
-19 -17 -19 -18 1 -36 11 -10 20 -23 20 -27 0 -5 10 -7 23 -4 20 4 20 3 4 -7
-15 -10 -23 -8 -40 8 -22 19 -47 20 -47 0 0 -11 -40 -47 -54 -48 -5 0 -3 7 4
15 9 10 9 15 1 15 -6 0 -11 8 -11 18 -1 16 -1 16 -11 0 -5 -10 -15 -18 -22
-18 -8 0 -8 3 2 9 11 7 11 10 0 17 -27 16 -40 13 -37 -9 2 -12 9 -21 16 -20 6
2 12 -1 12 -7 0 -5 7 -7 16 -3 11 4 15 2 12 -7 -5 -16 -38 -23 -38 -7 0 5 -3
7 -6 4 -4 -4 -2 -12 3 -19 14 -18 12 -48 -3 -48 -7 0 -16 -5 -20 -12 -5 -8 -2
-9 11 -4 15 5 16 4 5 -9 -15 -18 1 -20 18 -3 9 9 15 9 25 -1 10 -10 8 -11 -7
-5 -15 6 -17 4 -11 -6 6 -9 4 -11 -5 -5 -10 6 -12 3 -7 -11 5 -14 1 -12 -17 8
-13 15 -26 32 -28 39 -6 18 -28 1 -28 -22 0 -23 -15 -25 -24 -3 -3 9 -11 12
-18 8 -10 -6 -9 -3 0 9 16 19 8 39 -13 30 -8 -3 -15 0 -15 7 0 6 -4 9 -10 5
-14 -8 0 -37 16 -31 8 3 11 0 7 -10 -4 -12 -8 -12 -21 -2 -18 15 -20 15 -38
-9 -18 -24 -17 -14 2 32 8 20 10 34 5 30 -6 -3 -11 -12 -11 -19 0 -7 -7 -21
-16 -32 -8 -10 -13 -13 -9 -7 8 18 -6 16 -35 -3 l-25 -16 25 21 c14 12 31 26
38 31 19 17 14 47 -10 64 -26 18 -50 4 -29 -17 10 -10 11 -8 6 8 -6 19 -6 19
8 3 8 -10 17 -15 20 -11 4 3 7 2 7 -4 0 -14 -26 -24 -44 -17 -8 3 -16 14 -19
25 -3 13 -11 17 -21 13 -15 -6 -15 -8 1 -20 17 -13 17 -14 -2 -8 -16 5 -17 4
-5 -5 13 -9 12 -11 -3 -11 -10 0 -16 -4 -12 -9 3 -5 1 -13 -5 -16 -7 -4 -7
-11 -2 -18 5 -7 10 -19 10 -27 0 -8 3 -25 5 -37 4 -13 0 -24 -9 -27 -9 -3 -13
-10 -10 -15 3 -5 -1 -12 -10 -15 -8 -3 -13 -9 -10 -14 2 -4 -4 -8 -14 -8 -10
0 -16 6 -13 13 3 7 10 10 17 7 6 -3 3 1 -7 9 -10 8 -17 19 -16 23 4 26 -1 35
-14 22 -8 -7 -13 -19 -12 -28 1 -8 0 -9 -2 -2 -3 6 -9 12 -14 12 -5 0 -9 5 -9
11 0 5 4 8 9 5 5 -3 15 2 22 11 12 15 12 16 -3 10 -10 -3 -20 -2 -23 2 -2 5 5
11 16 14 12 3 18 10 14 16 -4 8 -12 8 -26 1 -18 -10 -23 -6 -20 13 1 4 -12 5
-29 2 -19 -3 -30 -1 -30 7 0 6 -2 9 -5 6 -13 -13 8 -35 30 -33 13 2 26 -3 29
-11 4 -11 -1 -13 -20 -8 -17 4 -30 2 -36 -7 -8 -11 -9 -10 -4 3 6 20 -9 34
-19 18 -4 -6 -11 -7 -17 -4 -7 5 -4 12 7 21 16 11 17 15 5 26 -10 9 -12 9 -6
-1 4 -7 0 -15 -10 -19 -10 -4 -19 -2 -22 5 -2 7 -8 12 -12 12 -9 0 -6 -33 5
-50 3 -6 -1 -10 -9 -10 -9 0 -15 6 -13 13 1 7 -9 12 -25 12 -16 1 -33 6 -40
13 -8 8 -9 12 -1 12 6 0 13 -5 15 -11 3 -8 9 -6 20 4 8 9 19 13 23 9 5 -4 1 4
-8 17 -15 23 -15 25 3 38 11 8 20 20 19 26 0 9 -2 8 -6 -1 -2 -6 -10 -9 -16
-5 -7 3 -9 3 -5 -2 5 -5 -1 -14 -12 -22 -11 -8 -20 -20 -20 -28 0 -7 -10 -15
-22 -17 -12 -2 -23 -9 -26 -17 -3 -8 0 -11 5 -8 5 3 10 -1 10 -9 0 -13 -2 -13
-16 0 -12 12 -12 19 -3 28 17 17 15 29 -3 22 -8 -4 -15 -14 -16 -23 0 -10 -5
-6 -12 11 -11 23 -15 24 -30 13 -22 -16 -22 -28 1 -21 12 4 19 1 19 -8 0 -11
-6 -12 -22 -6 -14 5 -27 4 -34 -3 -18 -18 -13 -29 9 -17 11 6 20 7 20 1 0 -5
-8 -12 -17 -15 -15 -6 -15 -8 -3 -16 13 -8 12 -10 -2 -10 -9 0 -25 -3 -35 -6
-13 -4 -14 -3 -5 4 11 7 11 10 -2 15 -8 3 -19 1 -22 -5 -5 -8 -10 -5 -14 7 -4
12 -1 25 7 33 8 8 11 17 8 20 -3 4 -9 2 -13 -4 -4 -6 -15 -11 -25 -11 -22 0
-5 20 20 23 23 4 48 -17 33 -26 -7 -5 -6 -11 5 -20 14 -12 15 -10 11 14 -3 19
0 29 12 33 9 4 24 14 32 22 16 17 60 24 60 10 0 -5 5 -9 11 -9 8 0 7 5 -1 15
-9 11 -10 19 -3 26 7 7 14 1 21 -20 6 -17 14 -31 17 -31 3 0 4 4 1 9 -4 5 6
19 21 31 16 12 22 18 14 14 -11 -5 -13 -3 -8 9 3 10 5 17 3 17 -3 0 -11 3 -20
6 -9 3 -16 1 -16 -6 0 -6 5 -8 10 -5 6 3 10 2 10 -3 0 -17 -13 -22 -27 -11
-10 9 -18 7 -34 -7 -19 -17 -20 -17 -13 2 4 10 13 24 20 29 14 11 8 65 -8 65
-5 0 -6 6 -2 13 4 6 3 8 -1 4 -12 -10 -15 -38 -4 -31 5 3 9 1 9 -5 0 -5 3 -18
7 -28 6 -16 5 -17 -12 -3 -10 8 -16 10 -12 3 4 -6 -3 -22 -15 -35 -13 -13 -20
-20 -16 -15 3 5 4 17 1 26 -4 13 -3 13 5 2 8 -11 10 -8 9 13 -2 24 -3 25 -14
9 -7 -9 -14 -25 -14 -35 -3 -34 -4 -38 -14 -35 -5 1 -9 4 -8 7 1 3 -7 7 -18 7
-11 1 -17 -2 -14 -8 4 -5 -2 -9 -11 -9 -16 0 -16 1 1 20 10 11 14 20 10 20 -5
0 2 12 16 28 l24 27 -27 -24 c-24 -21 -31 -23 -53 -13 -22 10 -31 32 -26 64 0
4 -6 5 -15 1 -9 -3 -11 -9 -6 -12 15 -10 24 -62 12 -76 -6 -7 -20 -11 -31 -8
-14 4 -18 1 -14 -9 3 -8 -2 -21 -12 -29 -17 -13 -17 -13 -4 4 10 12 11 21 5
25 -17 11 -25 42 -11 42 8 0 8 3 -2 9 -16 10 -6 31 15 31 8 0 12 -5 9 -10 -4
-6 -11 -7 -17 -4 -7 4 -8 2 -4 -5 6 -9 11 -9 22 0 8 6 17 9 20 6 3 -3 -4 -10
-15 -17 -12 -6 -21 -14 -21 -18 0 -11 48 -13 55 -3 3 5 -5 7 -17 4 -20 -4 -21
-3 -5 7 27 17 20 34 -23 52 -39 16 -45 14 -41 -17 1 -5 -6 -1 -15 10 l-17 20
8 -20 c4 -11 10 -30 12 -43 3 -12 10 -22 17 -23 14 -1 -24 -17 -42 -18 -8 -1
-12 8 -10 21 2 11 -3 23 -11 26 -8 3 -11 0 -7 -6 7 -12 -20 -10 -31 3 -5 4 -1
4 7 0 13 -8 13 -6 2 8 -17 20 -6 43 13 27 10 -8 15 -8 21 1 4 7 0 17 -9 24 -9
7 -13 16 -9 20 4 5 2 5 -5 1 -6 -3 -14 -2 -18 4 -4 6 -11 7 -17 4 -7 -5 -3
-11 11 -16 13 -4 19 -13 15 -19 -5 -8 -9 -8 -14 1 -10 16 -30 4 -29 -18 1 -15
2 -15 6 1 2 9 8 15 13 12 5 -3 7 -12 3 -20 -3 -8 -2 -27 1 -41 5 -19 12 -25
26 -21 12 3 20 -2 25 -17 4 -11 8 -24 10 -28 1 -5 3 -13 4 -19 0 -5 4 -8 9 -5
4 2 16 -2 27 -10 11 -8 13 -14 6 -14 -7 0 2 -14 20 -31 19 -18 40 -29 50 -26
13 3 16 0 14 -13 -2 -10 5 -26 16 -36 17 -16 19 -16 19 -1 0 10 -3 16 -7 16
-20 -3 -23 3 -12 22 9 17 8 24 -2 31 -11 8 -11 9 1 5 8 -2 15 -13 14 -25 0
-12 3 -19 8 -16 7 5 13 -36 9 -60 -1 -5 5 -6 13 -3 9 4 15 1 13 -6 -1 -7 4
-11 11 -9 8 1 11 -2 8 -7 -3 -5 1 -14 9 -21 8 -7 15 -9 16 -4 0 5 3 2 7 -7 9
-20 109 -104 279 -233 80 -60 151 -109 293 -203 112 -73 157 -107 114 -85 -40
21 -330 218 -428 291 -183 137 -375 302 -554 478 -26 26 -41 47 -36 54 4 7 3
9 -3 6 -17 -11 -189 179 -339 373 -387 501 -677 1155 -798 1800 -35 186 -63
378 -81 565 -18 188 -41 602 -34 609 3 3 43 -1 89 -10 271 -47 464 -55 700
-29 563 63 974 222 1462 567 109 77 298 230 342 277 17 17 33 31 38 31 5 0 52
-39 106 -86z m-18 -78 c0 -2 -8 -10 -17 -17 -16 -13 -17 -12 -4 4 13 16 21 21
21 13z m-49 -43 c-12 -20 -14 -14 -5 12 4 9 9 14 11 11 3 -2 0 -13 -6 -23z
m19 -18 c-7 -8 -16 -15 -21 -15 -5 0 -1 8 9 18 20 22 31 19 12 -3z m105 15 c3
-5 1 -10 -4 -10 -6 0 -11 5 -11 10 0 6 2 10 4 10 3 0 8 -4 11 -10z m-5 -34 c0
-3 -4 -8 -10 -11 -5 -3 -10 -1 -10 4 0 6 5 11 10 11 6 0 10 -2 10 -4z m-115
-16 c-3 -5 -12 -10 -18 -10 -7 0 -6 4 3 10 19 12 23 12 15 0z m170 0 c3 -5 1
-10 -4 -10 -6 0 -11 5 -11 10 0 6 2 10 4 10 3 0 8 -4 11 -10z m-133 -60 c4
-46 1 -50 -12 -14 -6 14 -14 23 -19 20 -5 -4 -7 3 -4 14 9 35 31 23 35 -20z
m-36 -6 c8 3 14 1 14 -4 0 -6 -6 -10 -14 -10 -8 0 -16 -6 -19 -12 -2 -7 -4 3
-4 22 0 19 2 27 4 17 3 -11 11 -16 19 -13z m48 -85 c-3 -5 -10 -7 -15 -3 -5 3
-7 10 -3 15 3 5 10 7 15 3 5 -3 7 -10 3 -15z m-29 -29 c-3 -5 -12 -10 -18 -10
-7 0 -6 4 3 10 19 12 23 12 15 0z m2552 -707 c-2 -21 -4 -6 -4 32 0 39 2 55 4
38 2 -18 2 -50 0 -70z m-22 -287 c-17 -190 -39 -349 -30 -216 2 36 11 135 20
220 8 85 16 175 17 200 1 39 2 40 5 11 3 -18 -3 -115 -12 -215z m-2935 -230
c0 -2 -30 -21 -66 -42 -77 -45 -204 -174 -253 -257 -82 -139 -115 -261 -114
-422 1 -177 46 -316 149 -461 56 -80 167 -182 241 -222 77 -42 57 -40 -76 7
-259 93 -485 237 -704 450 -54 53 -124 126 -154 164 l-55 67 41 54 c54 69 217
231 306 301 172 137 386 259 575 326 119 43 110 40 110 35z m798 -32 c238 -89
467 -232 682 -425 82 -73 223 -231 228 -255 2 -8 -26 -49 -61 -92 -171 -202
-408 -389 -646 -508 -96 -47 -296 -124 -324 -124 -6 0 17 17 53 38 86 50 215
180 269 270 143 238 154 525 31 775 -67 134 -159 238 -282 317 -33 22 -58 40
-54 40 4 0 51 -16 104 -36z m2099 -71 c-3 -10 -5 -2 -5 17 0 19 2 27 5 18 2
-10 2 -26 0 -35z m-10 -70 c-3 -10 -5 -2 -5 17 0 19 2 27 5 18 2 -10 2 -26 0
-35z m-14 -74 c-6 -6 -7 3 -4 23 4 28 6 29 9 9 2 -13 0 -27 -5 -32z m-9 -68
c-4 -23 -9 -40 -11 -37 -3 3 -2 23 2 46 4 23 9 39 11 37 3 -2 2 -23 -2 -46z
m-29 -146 c-10 -47 -20 -83 -22 -81 -3 2 3 43 13 90 10 47 20 83 22 81 3 -2
-3 -43 -13 -90z m-28 -117 c-3 -8 -6 -5 -6 6 -1 11 2 17 5 13 3 -3 4 -12 1
-19z m-23 -92 c-9 -37 -18 -65 -21 -63 -2 3 4 34 13 71 9 37 18 65 21 63 2 -3
-4 -34 -13 -71z m-30 -110 c-3 -15 -8 -25 -11 -23 -2 3 -1 17 3 31 3 15 8 25
11 23 2 -3 1 -17 -3 -31z m-23 -67 c-5 -13 -10 -19 -10 -12 -1 15 10 45 15 40
3 -2 0 -15 -5 -28z m-42 -133 c-17 -48 -33 -85 -35 -84 -2 2 11 45 29 96 18
50 33 88 35 83 1 -4 -11 -47 -29 -95z m-48 -123 c-12 -20 -14 -14 -5 12 4 9 9
14 11 11 3 -2 0 -13 -6 -23z m-51 -130 c-38 -88 -99 -211 -86 -173 13 40 121
278 124 275 2 -2 -15 -48 -38 -102z m-444 -185 c146 -143 197 -64 -468 -722
-491 -486 -566 -556 -592 -556 -26 0 -67 37 -298 267 -327 326 -314 294 -174
431 132 130 119 133 320 -68 l161 -160 450 450 c384 383 455 450 479 450 23 0
48 -19 122 -92z m319 -88 c-21 -39 -39 -69 -41 -67 -2 1 13 35 34 74 20 40 38
70 40 68 2 -2 -13 -35 -33 -75z m-52 -95 c-3 -9 -8 -14 -10 -11 -3 3 -2 9 2
15 9 16 15 13 8 -4z m-23 -45 c-6 -11 -13 -20 -16 -20 -2 0 0 9 6 20 6 11 13
20 16 20 2 0 0 -9 -6 -20z m-30 -50 c-6 -11 -13 -20 -16 -20 -2 0 0 9 6 20 6
11 13 20 16 20 2 0 0 -9 -6 -20z m-1480 -10 c-8 -5 -19 -10 -25 -10 -5 0 -3 5
5 10 8 5 20 10 25 10 6 0 3 -5 -5 -10z m-113 -36 c-3 -3 -12 -4 -19 -1 -8 3
-5 6 6 6 11 1 17 -2 13 -5z m-40 -10 c-3 -3 -12 -4 -19 -1 -8 3 -5 6 6 6 11 1
17 -2 13 -5z m-40 -10 c-3 -3 -12 -4 -19 -1 -8 3 -5 6 6 6 11 1 17 -2 13 -5z
m-54 -11 c-7 -2 -19 -2 -25 0 -7 3 -2 5 12 5 14 0 19 -2 13 -5z m1681 -5 c-36
-60 -87 -138 -91 -138 -3 0 1 10 9 23 9 12 30 46 47 75 18 28 35 52 37 52 3 0
2 -6 -2 -12z m-1736 -5 c-10 -2 -26 -2 -35 0 -10 3 -2 5 17 5 19 0 27 -2 18
-5z m-85 -10 c-13 -2 -35 -2 -50 0 -16 2 -5 4 22 4 28 0 40 -2 28 -4z m1707
-163 c-12 -16 -24 -30 -26 -30 -3 0 4 14 16 30 12 17 24 30 26 30 3 0 -4 -13
-16 -30z m-50 -74 c0 -2 -8 -10 -17 -17 -16 -13 -17 -12 -4 4 13 16 21 21 21
13z m-102 -136 c-22 -30 -35 -41 -22 -17 9 16 36 47 41 47 2 0 -6 -13 -19 -30z
m-48 -64 c0 -2 -8 -10 -17 -17 -16 -13 -17 -12 -4 4 13 16 21 21 21 13z m-30
-40 c0 -2 -8 -10 -17 -17 -16 -13 -17 -12 -4 4 13 16 21 21 21 13z m-60 -69
c0 -2 -12 -14 -27 -28 l-28 -24 24 28 c23 25 31 32 31 24z m-2880 -127 c0 -5
-2 -10 -4 -10 -3 0 -8 5 -11 10 -3 6 -1 10 4 10 6 0 11 -4 11 -10z m1062 -52
c-7 -7 -12 -8 -12 -2 0 14 12 26 19 19 2 -3 -1 -11 -7 -17z m145 -22 c-3 -8
-1 -18 5 -24 7 -7 2 -17 -16 -33 -14 -12 -23 -26 -20 -31 3 -4 0 -8 -5 -8 -13
0 -14 10 -2 30 14 21 3 31 -20 17 -16 -10 -21 -9 -28 2 -5 8 -11 9 -15 3 -3
-5 1 -12 8 -15 8 -3 14 -15 13 -25 0 -11 -6 -18 -13 -15 -7 3 -10 12 -6 21 5
15 4 15 -14 2 -14 -11 -16 -11 -7 0 10 11 9 18 -5 34 -9 12 -13 18 -8 14 5 -4
15 -3 22 3 8 6 14 7 18 0 4 -6 13 -8 21 -5 8 4 13 10 10 14 -3 5 8 14 24 21
19 8 27 18 24 28 -3 11 -1 10 7 -2 6 -10 9 -24 7 -31z m-1019 -1 c-2 -6 -6 -9
-10 -7 -5 1 -8 -5 -8 -14 0 -8 5 -12 10 -9 6 3 10 -2 10 -12 0 -10 -17 -29
-38 -42 -34 -22 -36 -22 -18 -2 11 11 16 22 13 22 -4 1 -11 2 -17 3 -5 0 -10
4 -10 9 0 4 0 13 0 19 0 7 7 2 16 -10 8 -12 20 -20 25 -17 15 10 10 28 -6 21
-20 -7 -19 13 2 36 17 19 37 21 31 3z m1082 2 c0 -2 -10 -12 -22 -23 l-23 -19
19 23 c18 21 26 27 26 19z m-1206 -26 c3 -5 -2 -15 -12 -22 -15 -12 -16 -12
-5 2 7 9 10 19 6 22 -3 4 -4 7 0 7 3 0 8 -4 11 -9z m742 -31 c5 1 10 -4 12
-12 3 -11 2 -11 -6 0 -7 11 -11 8 -15 -9 -5 -18 -9 -21 -18 -12 -6 6 -19 9
-28 6 -11 -4 -8 2 8 21 16 16 27 22 31 15 4 -6 11 -10 16 -9z m-586 0 c0 -5
-2 -10 -4 -10 -3 0 -8 5 -11 10 -3 6 -1 10 4 10 6 0 11 -4 11 -10z m40 2 c0
-4 -9 -13 -19 -19 -16 -10 -18 -9 -14 8 5 18 33 28 33 11z m894 -27 c-4 -8 -8
-15 -10 -15 -2 0 -4 7 -4 15 0 8 4 15 10 15 5 0 7 -7 4 -15z m68 -10 c-2 -11
1 -14 9 -9 7 4 10 3 6 -3 -4 -6 0 -14 9 -17 9 -4 14 -9 11 -12 -3 -3 -17 2
-31 11 -22 15 -24 20 -14 33 11 13 10 15 -5 9 -11 -4 -16 -3 -12 4 10 16 30 4
27 -16z m68 -5 c0 -5 -7 -7 -15 -4 -8 4 -15 8 -15 10 0 2 7 4 15 4 8 0 15 -4
15 -10z m-375 -20 c3 -6 -1 -7 -9 -4 -18 7 -21 14 -7 14 6 0 13 -4 16 -10z
m246 -7 c13 -16 12 -17 -3 -4 -17 13 -22 21 -14 21 2 0 10 -8 17 -17z m-791
-18 c0 -2 -7 -1 -17 2 -12 5 -14 3 -8 -8 8 -12 6 -12 -8 0 -22 18 -11 34 14
21 10 -6 19 -13 19 -15z m459 -13 c-5 -2 -6 -9 -2 -15 5 -8 2 -8 -9 0 -8 7
-18 10 -21 6 -4 -3 -7 -1 -7 5 0 7 7 12 15 12 8 0 15 8 16 18 0 14 2 14 8 -3
5 -11 4 -22 0 -23z m125 22 c7 -19 0 -34 -17 -34 -8 0 -7 4 2 9 12 8 12 12 2
25 -8 9 -9 16 -3 16 5 0 13 -7 16 -16z m353 -36 c-2 -13 -4 -5 -4 17 -1 22 1
32 4 23 2 -10 2 -28 0 -40z m-866 -4 c5 -7 3 -11 -6 -11 -8 0 -12 4 -9 9 3 4
1 8 -4 8 -6 0 -7 10 -4 23 6 21 6 21 10 2 2 -11 8 -25 13 -31z m565 24 c-2
-13 4 -32 13 -43 14 -17 14 -18 0 -8 -12 10 -20 9 -40 -4 -17 -12 -21 -13 -13
-3 7 8 11 27 9 43 -2 15 1 25 5 22 5 -3 11 -1 15 5 10 17 15 11 11 -12z m214
12 c8 -5 11 -10 5 -10 -5 0 -17 5 -25 10 -8 5 -10 10 -5 10 6 0 17 -5 25 -10z
m-694 -28 c-17 -16 -18 -16 -5 5 7 12 15 20 18 17 3 -2 -3 -12 -13 -22z m69
18 c3 -5 2 -10 -4 -10 -5 0 -13 5 -16 10 -3 6 -2 10 4 10 5 0 13 -4 16 -10z
m-128 -6 c-3 -3 -12 -4 -19 -1 -8 3 -5 6 6 6 11 1 17 -2 13 -5z m428 -22 c-8
-2 -15 -8 -15 -14 0 -6 -3 -9 -6 -6 -3 4 0 16 6 28 10 18 14 20 21 9 6 -9 4
-15 -6 -17z m265 20 c0 -5 -11 -14 -25 -20 -20 -9 -23 -9 -19 3 3 8 13 16 22
18 10 3 18 5 20 6 1 0 2 -3 2 -7z m-848 -9 c-6 -2 -10 -9 -7 -14 4 -5 -2 -6
-11 -2 -13 5 -15 3 -9 -8 7 -11 5 -11 -10 1 -17 14 -18 13 -11 -5 5 -15 4 -17
-5 -8 -12 12 -3 37 11 28 5 -3 11 -1 15 5 3 5 14 10 23 9 11 0 12 -2 4 -6z
m261 -15 c5 -21 5 -21 -7 -6 -7 10 -17 14 -21 10 -5 -4 -5 -1 -1 6 11 19 23
14 29 -10z m477 7 c0 -8 -4 -15 -10 -15 -5 0 -7 7 -4 15 4 8 8 15 10 15 2 0 4
-7 4 -15z m-662 -4 c11 -7 10 -9 -3 -14 -9 -4 -13 -3 -10 2 3 5 -3 12 -12 14
-13 3 -14 5 -3 6 8 0 21 -3 28 -8z m92 -6 c7 -9 8 -15 2 -15 -5 0 -12 7 -16
15 -3 8 -4 15 -2 15 2 0 9 -7 16 -15z m735 6 c3 -5 2 -12 -3 -15 -5 -3 -9 1
-9 9 0 17 3 19 12 6z m1305 5 c0 -2 -8 -10 -17 -17 -16 -13 -17 -12 -4 4 13
16 21 21 21 13z m-1742 -26 c-7 -10 -14 -17 -17 -15 -4 4 18 35 25 35 2 0 -1
-9 -8 -20z m-230 -15 c-3 -3 -9 2 -12 12 -6 14 -5 15 5 6 7 -7 10 -15 7 -18z
m372 15 c0 -5 -2 -10 -4 -10 -3 0 -8 5 -11 10 -3 6 -1 10 4 10 6 0 11 -4 11
-10z m-555 -9 c3 -5 2 -12 -3 -15 -5 -3 -9 1 -9 9 0 17 3 19 12 6z m719 1 c3
-5 -1 -9 -9 -9 -8 0 -12 4 -9 9 3 4 7 8 9 8 2 0 6 -4 9 -8z m223 -14 c-3 -8
-6 -5 -6 6 -1 11 2 17 5 13 3 -3 4 -12 1 -19z m-830 -10 c-3 -8 -6 -5 -6 6 -1
11 2 17 5 13 3 -3 4 -12 1 -19z m355 0 c-2 -10 -7 -18 -11 -18 -4 0 -7 8 -7
18 0 10 5 19 12 19 6 0 9 -9 6 -19z m49 5 c13 -16 12 -17 -3 -4 -10 7 -18 15
-18 17 0 8 8 3 21 -13z m-456 -3 c3 -5 1 -10 -4 -10 -6 0 -11 5 -11 10 0 6 2
10 4 10 3 0 8 -4 11 -10z m205 5 c0 -2 -10 -9 -22 -15 -22 -11 -22 -10 -4 4
21 17 26 19 26 11z m-350 -20 c-7 -8 -17 -15 -23 -15 -6 0 -2 7 9 15 25 19 30
19 14 0z m384 -4 c-9 -9 -45 -11 -39 -2 3 6 14 9 25 8 10 -1 17 -3 14 -6z m26
-21 c0 -5 -2 -10 -4 -10 -3 0 -8 5 -11 10 -3 6 -1 10 4 10 6 0 11 -4 11 -10z
m-60 -16 c0 -8 -5 -12 -10 -9 -6 4 -8 11 -5 16 9 14 15 11 15 -7z m156 4 c3
-4 -1 -5 -10 -4 -8 1 -18 5 -22 8 -3 4 1 5 10 4 8 -1 18 -5 22 -8z m34 -23
c14 -19 14 -19 -2 -6 -10 7 -18 18 -18 24 0 6 1 8 3 6 1 -2 9 -13 17 -24z
m487 -22 c-3 -10 -5 -4 -5 12 0 17 2 24 5 18 2 -7 2 -21 0 -30z m-607 5 c0 -4
-7 -8 -15 -8 -8 0 -15 4 -15 8 0 5 7 9 15 9 8 0 15 -4 15 -9z m1650 -2 c0 -2
-8 -10 -17 -17 -16 -13 -17 -12 -4 4 13 16 21 21 21 13z m-1043 -128 c-3 -8
-6 -5 -6 6 -1 11 2 17 5 13 3 -3 4 -12 1 -19z m-287 -394 c0 -2 -9 0 -20 6
-11 6 -20 13 -20 16 0 2 9 0 20 -6 11 -6 20 -13 20 -16z m95 -57 c16 -15 -48
20 -70 38 -11 9 -2 7 20 -6 22 -12 45 -26 50 -32z m115 -63 c0 -2 -13 2 -30
11 -16 9 -30 18 -30 21 0 2 14 -2 30 -11 17 -9 30 -18 30 -21z"/>
<path d="M3086 2288 c3 -4 9 -8 15 -8 5 0 9 4 9 8 0 5 -7 9 -15 9 -8 0 -12 -4
-9 -9z"/>
<path d="M3220 1765 c0 -8 4 -15 10 -15 5 0 7 7 4 15 -4 8 -8 15 -10 15 -2 0
-4 -7 -4 -15z"/>
<path d="M3305 1739 c-4 -6 -5 -12 -2 -15 2 -3 7 2 10 11 7 17 1 20 -8 4z"/>
<path d="M3321 1716 c-6 -8 -11 -18 -10 -22 3 -21 -2 -24 -22 -13 -17 8 -20 8
-17 -2 2 -6 14 -16 27 -20 14 -6 20 -5 16 1 -3 6 -2 10 3 10 9 0 24 51 18 58
-2 1 -8 -4 -15 -12z"/>
<path d="M2030 1705 c-11 -13 -10 -14 4 -9 9 3 16 10 16 15 0 13 -6 11 -20 -6z"/>
<path d="M2840 1711 c0 -6 4 -13 10 -16 6 -3 7 1 4 9 -7 18 -14 21 -14 7z"/>
<path d="M2645 1690 c-3 -5 -1 -10 4 -10 6 0 11 5 11 10 0 6 -2 10 -4 10 -3 0
-8 -4 -11 -10z"/>
<path d="M1948 1683 c7 -3 16 -2 19 1 4 3 -2 6 -13 5 -11 0 -14 -3 -6 -6z"/>
<path d="M2040 1670 c0 -5 7 -10 16 -10 8 0 12 5 9 10 -3 6 -10 10 -16 10 -5
0 -9 -4 -9 -10z"/>
<path d="M3346 1671 c-3 -5 1 -11 9 -14 9 -4 12 -1 8 9 -6 16 -10 17 -17 5z"/>
<path d="M1963 1663 c-16 -6 -17 -33 -2 -33 5 0 8 4 4 9 -3 5 -1 12 5 16 14 9
13 -18 -2 -33 -9 -9 -8 -12 4 -12 9 0 18 6 21 14 7 18 -14 45 -30 39z"/>
<path d="M2295 1660 c-3 -5 -1 -10 4 -10 6 0 11 5 11 10 0 6 -2 10 -4 10 -3 0
-8 -4 -11 -10z"/>
<path d="M2560 1660 c0 -5 5 -10 11 -10 5 0 7 5 4 10 -3 6 -8 10 -11 10 -2 0
-4 -4 -4 -10z"/>
<path d="M2340 1644 c-8 -8 -9 -14 -4 -13 22 4 33 -2 28 -16 -4 -8 -10 -12
-15 -9 -5 3 -9 0 -9 -5 0 -18 19 -12 30 8 15 29 12 41 -7 34 -11 -4 -14 -3 -9
5 10 17 1 15 -14 -4z"/>
<path d="M3115 1649 c-4 -6 -5 -12 -2 -15 2 -3 7 2 10 11 7 17 1 20 -8 4z"/>
<path d="M2958 1639 c-3 -7 4 -23 15 -34 l20 -20 -10 20 c-6 11 -12 27 -15 34
-4 13 -5 13 -10 0z"/>
<path d="M2987 1639 c7 -7 15 -10 18 -7 3 3 -2 9 -12 12 -14 6 -15 5 -6 -5z"/>
<path d="M3229 1642 c-1 -4 -1 -11 0 -16 1 -5 -4 -13 -11 -17 -7 -5 -8 -9 -3
-9 13 0 43 20 30 20 -5 0 -4 4 3 9 11 7 11 9 -2 14 -9 4 -17 3 -17 -1z"/>
<path d="M2530 1615 c-7 -9 -8 -15 -2 -15 5 0 12 7 16 15 3 8 4 15 2 15 -2 0
-9 -7 -16 -15z"/>
<path d="M3022 1618 c0 -7 -3 -24 -7 -38 -4 -17 -1 -14 9 9 18 39 19 41 8 41
-5 0 -9 -6 -10 -12z"/>
<path d="M3060 1620 c-11 -7 -11 -10 -2 -10 7 0 10 -4 7 -10 -10 -16 25 -12
41 5 9 8 11 15 5 15 -5 0 -13 -5 -16 -10 -4 -6 -11 -7 -17 -4 -6 4 -5 10 3 15
8 5 10 9 4 9 -5 0 -17 -5 -25 -10z"/>
<path d="M2245 1609 c-3 -3 6 -9 19 -11 16 -3 23 -1 20 7 -5 13 -32 16 -39 4z"/>
<path d="M2447 1609 c7 -7 15 -10 18 -7 3 3 -2 9 -12 12 -14 6 -15 5 -6 -5z"/>
<path d="M2495 1610 c-3 -5 -1 -10 4 -10 6 0 11 5 11 10 0 6 -2 10 -4 10 -3 0
-8 -4 -11 -10z"/>
<path d="M2603 1602 c1 -12 6 -18 15 -15 7 3 10 9 5 12 -4 3 -11 10 -15 15 -4
4 -6 -1 -5 -12z"/>
<path d="M2758 1613 c6 -2 18 -2 25 0 6 3 1 5 -13 5 -14 0 -19 -2 -12 -5z"/>
<path d="M2305 1600 c-3 -6 1 -7 9 -4 18 7 21 14 7 14 -6 0 -13 -4 -16 -10z"/>
<path d="M2830 1600 c18 -12 30 -13 30 -2 0 4 -10 9 -22 9 -18 2 -20 0 -8 -7z"/>
<path d="M2250 1587 c0 -2 6 -10 14 -16 11 -9 16 -9 22 1 4 7 4 10 -1 6 -4 -4
-14 -3 -22 3 -7 6 -13 9 -13 6z"/>
<path d="M2738 1583 c7 -3 16 -2 19 1 4 3 -2 6 -13 5 -11 0 -14 -3 -6 -6z"/>
<path d="M2880 1578 c0 -12 7 -18 23 -17 15 0 17 2 7 6 -8 3 -18 11 -22 17 -5
7 -8 4 -8 -6z"/>
<path d="M2099 1578 c-6 -21 -5 -38 2 -38 5 0 9 9 9 20 0 16 -7 28 -11 18z"/>
<path d="M2480 1571 c0 -5 7 -11 15 -15 8 -3 15 -1 15 3 0 5 -7 11 -15 15 -8
3 -15 1 -15 -3z"/>
<path d="M2650 1565 c-6 -8 -10 -19 -8 -24 1 -6 8 1 15 14 13 28 11 31 -7 10z"/>
<path d="M2837 1566 c-9 -7 -17 -16 -17 -19 0 -8 39 4 45 14 9 14 -10 18 -28
5z"/>
<path d="M2580 1558 c0 -6 3 -8 7 -5 3 4 13 1 22 -6 14 -11 14 -10 2 6 -15 20
-31 22 -31 5z"/>
<path d="M3070 1561 c0 -7 -5 -9 -12 -5 -7 4 -8 3 -4 -5 4 -6 12 -8 18 -5 7 4
8 2 4 -4 -4 -7 -14 -12 -22 -12 -8 0 -14 -4 -14 -10 0 -5 -6 -7 -14 -4 -8 3
-12 12 -9 20 3 8 0 14 -7 14 -6 0 -8 -4 -5 -10 3 -5 1 -10 -4 -10 -6 0 -11 5
-11 12 0 18 -13 0 -17 -22 -3 -21 11 -27 22 -10 9 14 35 0 28 -16 -3 -7 2 -17
11 -20 14 -5 14 -9 4 -22 -11 -13 -10 -14 2 -10 8 2 16 14 18 26 3 16 -1 20
-12 16 -20 -8 -21 3 -2 21 12 12 15 12 20 -1 5 -12 10 -14 20 -5 7 6 15 10 17
8 2 -1 -3 4 -11 11 -12 10 -12 14 -2 21 10 6 10 10 -3 21 -11 9 -15 9 -15 1z"/>
<path d="M2550 1548 c0 -7 10 -14 21 -15 12 -1 20 -1 18 0 -2 2 -12 9 -21 16
-15 11 -18 11 -18 -1z"/>
<path d="M2681 1544 c6 -7 7 -23 4 -36 -4 -13 -4 -19 1 -15 14 14 13 64 -2 64
-10 0 -11 -4 -3 -13z"/>
<path d="M2753 1548 c-6 -7 -9 -25 -8 -40 2 -28 -8 -37 -20 -18 -4 6 -2 17 4
24 9 10 8 15 -5 20 -12 4 -15 2 -11 -9 4 -8 1 -17 -4 -21 -6 -4 1 -14 17 -25
20 -13 32 -15 41 -8 6 6 17 8 23 4 5 -3 10 1 10 10 0 13 -4 14 -21 4 -20 -10
-21 -9 -17 30 4 46 4 46 -9 29z"/>
<path d="M2923 1546 c-3 -6 -3 -8 2 -4 4 4 13 1 19 -8 10 -13 12 -13 12 4 0
20 -23 26 -33 8z"/>
<path d="M2594 1518 c-3 -4 -2 -12 1 -18 3 -5 -1 -10 -10 -10 -11 0 -15 5 -11
16 3 8 2 12 -4 9 -6 -3 -10 -14 -11 -23 0 -14 -2 -13 -9 3 -9 21 -9 21 -15 -8
-3 -14 4 -17 43 -15 26 2 50 7 53 12 4 4 17 3 29 -4 18 -10 21 -10 14 2 -20
33 -29 36 -46 15 -10 -11 -18 -15 -18 -9 0 6 5 14 10 17 6 3 10 10 10 14 0 10
-30 10 -36 -1z"/>
<path d="M2995 1501 c-3 -5 -1 -12 5 -16 5 -3 10 1 10 9 0 18 -6 21 -15 7z"/>
<path d="M3080 1480 c-12 -8 -10 -10 8 -10 13 0 20 4 17 10 -7 12 -6 12 -25 0z"/>
<path d="M2694 1468 c-4 -7 -4 -10 1 -6 4 4 15 2 24 -5 14 -11 14 -10 2 6 -16
20 -18 21 -27 5z"/>
<path d="M2756 1439 c-12 -24 -13 -35 -5 -45 6 -8 16 -11 21 -8 6 4 5 -3 -1
-15 -10 -18 -9 -20 5 -14 13 5 15 3 9 -8 -8 -12 -6 -12 8 0 22 18 19 79 -4
104 -16 18 -17 17 -33 -14z m39 -37 c-8 -8 -25 10 -25 26 0 13 2 13 14 -4 8
-10 13 -21 11 -22z"/>
<path d="M3240 1530 c-13 -8 -13 -11 2 -26 16 -16 43 -11 32 7 -3 5 -10 6 -16
3 -7 -5 -9 -1 -5 9 7 20 7 20 -13 7z"/>
<path d="M2845 1460 c3 -5 8 -10 11 -10 2 0 4 5 4 10 0 6 -5 10 -11 10 -5 0
-7 -4 -4 -10z"/>
<path d="M3050 1371 c0 -6 4 -13 10 -16 6 -3 7 1 4 9 -7 18 -14 21 -14 7z"/>
</g>
</svg>
